<?xml version="1.0" standalone="no"?>
<!DOCTYPE svg PUBLIC "-//W3C//DTD SVG 20010904//EN"
 "http://www.w3.org/TR/2001/REC-SVG-20010904/DTD/svg10.dtd">
<svg version="1.0" xmlns="http://www.w3.org/2000/svg"
 width="300.000000pt" height="160.000000pt" viewBox="0 0 300.000000 160.000000"
 preserveAspectRatio="xMidYMid meet">
<metadata>
Created by potrace 1.10, written by Peter Selinger 2001-2011
</metadata>
<g transform="translate(0.000000,160.000000) scale(0.100000,-0.100000)"
fill="#000000" stroke="none">
<path d="M880 975 l-195 -195 197 -197 198 -197 51 52 52 53 -102 103 c-56 56
-99 105 -95 109 4 4 261 7 571 7 l563 0 0 70 0 70 -563 0 c-310 0 -567 3 -571
7 -4 4 39 53 95 109 l102 102 -48 51 c-26 28 -51 51 -54 51 -3 0 -94 -88 -201
-195z"/>
</g>
</svg>
