 <svg  version="1.0" xmlns="http://www.w3.org/2000/svg"  width="300.000000pt" height="283.000000pt" viewBox="0 0 300.000000 283.000000"  preserveAspectRatio="xMidYMid meet">  <g transform="translate(0.000000,283.000000) scale(0.100000,-0.100000)" fill="#4a1c82" stroke="none"> <path d="M1933 2823 c9 -2 25 -2 35 0 9 3 1 5 -18 5 -19 0 -27 -2 -17 -5z"/> <path d="M457 2718 c-7 -4 467 -7 1053 -7 586 0 1060 3 1054 5 -19 8 -2095 9 -2107 2z"/> <path d="M102 2693 c32 -2 84 -2 115 0 32 2 6 3 -57 3 -63 0 -89 -1 -58 -3z"/> <path d="M348 2683 c18 -2 45 -2 60 0 15 2 0 4 -33 4 -33 0 -45 -2 -27 -4z"/> <path d="M2567 2669 c-13 -15 -17 -32 -14 -67 l3 -47 2 46 c3 76 8 78 233 82 l194 2 -200 2 c-187 1 -201 0 -218 -18z"/> <path d="M275 2537 c99 -7 182 -11 184 -10 16 10 -29 15 -185 18 l-179 3 180 -11z"/> <path d="M2550 2533 c0 -5 53 -7 117 -5 218 4 239 8 61 10 -98 1 -178 -1 -178 -5z"/> <path d="M473 2485 c0 -27 2 -38 4 -22 2 15 2 37 0 50 -2 12 -4 0 -4 -28z"/> <path d="M1158 2523 c128 -2 335 -2 460 0 125 1 20 2 -233 2 -253 0 -355 -1 -227 -2z"/> <path d="M20 2499 c24 -20 24 -25 21 -128 l-3 -108 44 -25 c32 -19 65 -27 126 -32 l82 -7 0 100 c0 61 -4 101 -10 101 -5 0 -10 -7 -10 -16 0 -24 -20 -6 -21 19 0 12 -3 16 -6 10 -10 -26 -23 -12 -23 24 l0 37 33 -32 c18 -18 42 -32 52 -32 15 0 9 11 -30 49 l-50 49 -115 6 -115 7 25 -22z m100 -44 c0 -24 -5 -35 -14 -35 -32 0 -46 13 -46 41 0 26 4 29 30 29 28 0 30 -3 30 -35z m80 -6 c0 -26 -4 -29 -30 -29 -27 0 -30 3 -30 33 0 32 2 33 30 29 25 -4 30 -9 30 -33z m-40 -49 l38 0 -5 -62 c-3 -35 -7 -64 -8 -66 -2 -2 -30 0 -64 4 l-61 7 0 65 0 65 31 -7 c17 -3 49 -6 69 -6z m110 -113 c0 -43 -3 -57 -12 -53 -7 3 -21 9 -32 12 -15 6 -17 14 -12 43 3 20 6 51 6 70 l0 34 25 -23 c21 -20 25 -32 25 -83z m-150 -42 c0 -13 -4 -14 -20 -5 -11 6 -20 13 -20 15 0 3 9 5 20 5 11 0 20 -7 20 -15z"/> <path d="M2860 2503 c-85 -4 -85 -4 -127 -46 -44 -43 -52 -57 -30 -57 9 0 12 -27 12 -102 l0 -103 84 4 c71 3 91 8 124 29 l39 26 -7 104 c-7 98 -6 104 14 118 27 20 27 35 -1 32 -13 -1 -61 -4 -108 -5z m72 -53 c5 -35 2 -40 -28 -40 -16 0 -23 7 -27 27 -7 35 -2 43 27 43 19 0 25 -7 28 -30z m-72 -10 c0 -27 -3 -30 -30 -30 -27 0 -30 3 -30 30 0 27 3 30 30 30 27 0 30 -3 30 -30z m-80 -15 c0 -19 -4 -35 -10 -35 -11 0 -14 53 -3 63 11 12 13 8 13 -28z m-39 -58 c-8 -8 -11 -2 -11 19 0 40 14 54 18 19 2 -15 -1 -32 -7 -38z m197 -39 l-3 -63 -62 -3 -63 -3 0 50 c0 27 -3 56 -6 65 -5 14 4 16 65 16 l72 0 -3 -62z m-170 -90 c-13 -10 -26 -18 -30 -18 -5 0 -8 26 -8 57 0 45 5 62 23 81 l22 24 8 -63 c7 -59 6 -64 -15 -81z"/> <path d="M1033 2493 c9 -2 25 -2 35 0 9 3 1 5 -18 5 -19 0 -27 -2 -17 -5z"/> <path d="M1500 2460 l-415 -5 0 -1150 0 -1150 -30 0 c-24 0 -30 4 -30 22 0 13 -4 23 -8 23 -164 2 -349 -2 -344 -6 8 -9 -21 -64 -33 -64 -6 0 -10 -7 -10 -16 0 -15 -27 -16 -281 -12 l-280 4 3 -27 c3 -27 -23 -57 -62 -72 -11 -4 -9 -6 5 -6 40 -1 62 11 78 45 14 29 22 34 52 34 26 0 34 -3 29 -12 -6 -10 -5 -10 7 -1 10 8 80 12 223 12 115 1 212 3 215 6 4 2 170 5 368 6 227 2 360 7 356 13 -3 5 -1 6 5 2 6 -4 244 -9 529 -11 285 -2 543 -6 573 -8 30 -3 142 -7 247 -9 106 -1 193 -6 193 -10 0 -5 9 -8 20 -8 14 0 20 7 20 23 l0 24 -265 -5 -264 -4 -26 28 c-15 16 -29 41 -32 56 l-5 28 -174 0 -174 0 0 -24 c0 -30 -14 -40 -46 -32 l-24 6 -2 1153 -3 1152 -415 -5z m379 -44 c8 -10 11 -303 11 -1106 -1 -796 2 -1095 10 -1100 7 -4 2 -10 -12 -13 -39 -11 -751 -8 -768 3 -12 8 -10 10 10 10 14 0 20 4 14 8 -19 13 -23 67 -24 329 l-1 258 28 6 28 7 -27 1 -28 1 -2 118 c-2 122 -2 150 1 217 2 22 2 312 2 644 -1 428 3 608 10 618 17 20 731 19 748 -1z m11 -2245 c0 -5 3 -16 6 -25 5 -12 0 -16 -21 -16 -15 0 -24 -4 -20 -10 3 -5 2 -10 -4 -10 -5 0 -13 4 -16 10 -4 6 -139 10 -372 10 l-366 0 23 25 23 25 374 0 c220 0 373 -4 373 -9z m407 -7 c12 -3 24 -12 27 -20 4 -12 -23 -14 -166 -14 l-171 0 23 20 c20 18 37 20 144 20 67 0 131 -3 143 -6z m-1287 -19 c11 -13 6 -15 -31 -17 -102 -3 -265 -3 -283 1 -18 4 -18 5 -1 18 28 20 298 19 315 -2z"/> <path d="M1490 2350 c-41 -3 -80 -8 -87 -13 -6 -4 -14 -3 -18 3 -3 5 -44 10 -90 10 -74 0 -86 -2 -99 -21 -11 -16 -12 -28 -4 -48 7 -18 6 -45 -2 -91 -17 -90 -10 -357 10 -387 13 -21 23 -23 94 -23 63 0 81 3 91 17 13 17 14 17 32 0 23 -20 54 -22 71 -5 9 9 21 8 52 -2 37 -12 42 -12 55 6 14 18 16 18 29 1 12 -15 27 -18 87 -16 108 3 107 1 110 199 5 242 -1 348 -19 362 -16 14 -156 12 -181 -2 -9 -4 -23 -3 -35 4 -14 8 -47 10 -96 6z m-115 -280 l0 -260 -62 0 c-65 0 -67 2 -66 48 1 15 -10 15 -25 0 -9 -9 -12 42 -12 230 l0 242 83 0 82 0 0 -260z m213 1 l0 -259 -84 -1 -84 -1 0 260 0 260 84 0 84 0 0 -259z m212 -1 l0 -260 -85 0 -85 0 0 260 0 260 85 0 85 0 0 -260z m-397 159 c-4 -4 -9 6 -10 24 -1 30 -1 31 8 8 5 -14 6 -28 2 -32z m-163 -404 c0 -8 -7 -15 -15 -15 -8 0 -15 7 -15 15 0 8 7 15 15 15 8 0 15 -7 15 -15z"/> <path d="M1283 2212 c-60 -4 -54 -22 7 -22 28 0 50 4 50 9 0 14 -10 16 -57 13z"/> <path d="M1530 2227 c0 -20 -4 -21 -29 -7 -13 6 -24 5 -37 -5 -18 -13 -18 -14 6 -19 24 -6 87 -3 94 5 2 2 -5 13 -15 23 -17 17 -19 18 -19 3z"/> <path d="M1530 1990 c0 -18 -4 -22 -25 -18 -21 4 -23 3 -13 -9 6 -8 17 -12 24 -9 7 3 14 0 16 -6 6 -17 28 0 28 21 0 10 -7 24 -15 31 -13 10 -15 9 -15 -10z"/> <path d="M1514 1928 c-4 -6 -3 -8 2 -5 6 3 15 -3 22 -14 7 -10 8 -19 3 -19 -6 0 -13 5 -16 10 -3 6 -11 10 -17 10 -7 0 0 -13 15 -28 15 -16 24 -32 20 -37 -5 -4 -3 -5 4 -1 6 3 10 19 9 34 -2 15 -4 32 -5 38 -1 17 -29 25 -37 12z"/> <path d="M1444 1875 c1 -28 24 -41 40 -25 8 8 7 14 -4 20 -8 5 -10 10 -5 10 10 0 -15 20 -26 20 -4 0 -6 -11 -5 -25z"/> <path d="M1665 2210 c-7 -11 34 -23 66 -18 12 2 24 8 26 14 5 14 -83 18 -92 4z"/> <path d="M1735 1851 c-3 -5 -2 -12 3 -15 12 -7 52 4 52 15 0 12 -47 12 -55 0z"/> <path d="M1170 1735 c0 -8 9 -15 20 -15 11 0 20 5 20 10 0 6 18 10 40 10 33 0 40 -3 40 -20 0 -17 -7 -20 -41 -20 -22 0 -38 -4 -34 -9 3 -5 -7 -11 -22 -13 -45 -6 137 -7 205 -1 68 5 86 23 22 23 -22 0 -40 -4 -40 -10 0 -5 -20 -10 -44 -10 -39 0 -44 2 -39 20 5 18 25 25 60 21 6 -1 14 3 18 9 3 5 24 10 46 10 29 0 39 -4 39 -16 0 -13 3 -14 14 -5 8 7 25 9 40 5 16 -4 26 -2 26 5 0 6 19 11 45 11 25 0 45 -4 45 -9 0 -5 18 -8 40 -7 22 0 40 4 40 8 0 12 78 10 85 -2 9 -15 32 -12 39 5 5 13 -36 15 -329 15 -291 0 -335 -2 -335 -15z"/> <path d="M1545 1690 c3 -5 21 -10 40 -10 19 0 37 5 40 10 4 6 -12 10 -40 10 -28 0 -44 -4 -40 -10z"/> <path d="M1715 1691 c7 -12 64 -11 71 1 3 4 -13 8 -36 8 -23 0 -39 -4 -35 -9z"/> <path d="M1488 1673 c12 -2 30 -2 40 0 9 3 -1 5 -23 4 -22 0 -30 -2 -17 -4z"/> <path d="M1243 1633 c20 -2 54 -2 75 0 20 2 3 4 -38 4 -41 0 -58 -2 -37 -4z"/> <path d="M1468 1633 c23 -2 59 -2 80 0 20 2 1 4 -43 4 -44 0 -61 -2 -37 -4z"/> <path d="M1688 1633 c23 -2 59 -2 80 0 20 2 1 4 -43 4 -44 0 -61 -2 -37 -4z"/> <path d="M1793 1175 c0 -38 2 -53 4 -32 2 20 2 52 0 70 -2 17 -4 1 -4 -38z"/> <path d="M1794 850 c0 -140 2 -198 3 -128 2 71 2 185 0 255 -1 71 -3 13 -3 -127z"/> <path d="M1120 1080 c0 -5 7 -10 15 -10 8 0 15 5 15 10 0 6 -7 10 -15 10 -8 0 -15 -4 -15 -10z"/> <path d="M1149 955 c-3 -49 -4 -92 -2 -94 10 -14 13 17 11 95 l-3 89 -6 -90z"/> <path d="M350 2390 c13 -9 149 -15 139 -6 -2 2 -38 6 -79 10 -51 4 -70 3 -60 -4z"/> <path d="M2522 2318 l2 -73 3 67 4 67 72 4 72 3 -77 2 -78 2 2 -72z"/> <path d="M740 2248 c0 -74 2 -86 15 -82 9 4 15 0 15 -10 0 -9 -7 -16 -15 -16 -12 0 -15 -15 -15 -71 0 -87 22 -93 30 -8 3 37 7 48 13 36 11 -28 9 -99 -3 -92 -5 3 -10 -4 -10 -15 0 -16 -5 -20 -15 -16 -13 4 -15 -8 -14 -82 1 -48 3 -79 6 -69 5 20 23 23 23 4 0 -7 11 -12 26 -12 l26 2 -1 128 c-2 106 -5 133 -20 154 -18 25 -34 150 -24 179 3 8 28 12 76 12 68 0 73 -2 84 -27 10 -21 10 -29 1 -34 -18 -11 -105 -22 -118 -14 -5 3 -10 2 -10 -3 0 -5 29 -13 65 -17 36 -3 65 -11 65 -16 0 -5 7 -9 15 -9 12 0 15 15 15 71 0 44 -4 68 -10 64 -5 -3 -10 1 -10 10 0 9 5 13 10 10 6 -3 10 -3 10 2 0 4 -52 8 -115 8 l-115 0 0 -87z m53 -340 c-3 -26 -9 -45 -14 -42 -10 6 -12 75 -3 99 12 31 23 -6 17 -57z"/> <path d="M2046 2327 c17 -10 19 -28 2 -24 -9 1 -14 -18 -16 -66 -2 -58 0 -68 13 -65 9 2 15 7 15 12 -3 16 22 24 73 24 27 1 54 5 60 11 6 6 -5 8 -31 4 -76 -10 -121 19 -87 57 8 9 12 20 8 23 -3 4 25 7 63 7 48 0 64 -3 54 -10 -12 -8 -9 -10 13 -10 25 0 27 -3 27 -46 0 -31 -3 -43 -12 -38 -8 5 -10 -4 -6 -34 5 -34 2 -44 -18 -63 -23 -21 -24 -29 -24 -140 0 -65 -3 -120 -7 -122 -5 -2 -20 -7 -35 -11 -25 -6 -28 -4 -28 19 0 16 6 25 15 25 8 0 15 4 15 10 0 5 -13 7 -30 4 -16 -4 -30 -3 -30 2 0 17 17 35 30 32 8 -2 16 6 18 17 2 11 9 23 15 27 7 4 5 14 -5 30 -11 17 -13 29 -6 41 10 19 2 57 -13 57 -5 0 -9 -5 -9 -11 0 -5 -4 -8 -9 -5 -5 3 -11 -1 -15 -9 -3 -8 -1 -15 4 -15 6 0 10 -8 9 -17 0 -11 -3 -13 -6 -5 -7 18 -21 15 -26 -5 -2 -10 -4 -4 -4 12 0 17 -3 40 -7 52 -4 12 -2 24 4 28 5 3 10 14 9 23 0 11 -3 12 -6 5 -2 -7 -10 -13 -17 -13 -8 0 -13 -22 -14 -65 -2 -53 0 -65 13 -65 8 0 15 -9 15 -20 0 -11 -7 -20 -15 -20 -12 0 -15 -14 -15 -65 0 -51 3 -65 15 -65 8 0 15 -4 15 -10 0 -6 42 -10 105 -10 l105 0 0 81 c0 68 -2 80 -15 75 -10 -4 -15 1 -15 15 0 15 5 19 15 15 13 -4 15 7 15 69 0 62 -2 73 -15 69 -10 -4 -15 0 -15 11 0 11 5 15 15 11 13 -4 15 9 15 83 l0 88 -119 -1 c-67 0 -113 -4 -105 -9z m186 -309 c-5 -18 -5 -46 -1 -62 9 -33 -2 -102 -16 -98 -6 1 -10 38 -10 81 0 44 -4 83 -8 87 -14 14 -7 48 16 72 l22 24 3 -36 c2 -19 -1 -50 -6 -68z m-112 -39 c0 -5 -7 -9 -15 -9 -8 0 -15 -7 -15 -17 0 -9 -3 -14 -6 -10 -3 3 -3 20 1 37 6 25 9 29 21 19 8 -6 14 -15 14 -20z m-48 -79 c3 -16 1 -30 -4 -30 -4 0 -8 14 -8 30 0 17 2 30 4 30 2 0 6 -13 8 -30z"/> <path d="M2354 2155 c0 -77 2 -107 3 -67 2 40 2 103 0 140 -2 37 -3 4 -3 -73z"/> <path d="M648 2102 c4 -223 9 -237 11 -30 0 97 -2 179 -6 181 -5 3 -7 -65 -5 -151z"/> <path d="M440 2246 c0 -9 40 -13 46 -5 3 5 -6 9 -20 9 -14 0 -26 -2 -26 -4z"/> <path d="M2522 1728 c1 -282 3 -485 5 -451 l4 63 167 3 167 3 -167 2 -168 2 0 70 0 70 183 3 182 2 -182 3 -183 2 0 70 0 70 183 3 182 2 -182 3 -183 2 0 70 0 69 93 4 92 3 -92 2 -93 2 0 69 c0 58 3 70 18 74 15 4 15 5 0 6 -15 1 -17 16 -17 140 l0 140 27 4 c25 4 24 4 -5 6 l-33 1 2 -512z"/> <path d="M940 2006 l0 -156 -39 0 c-22 0 -44 -6 -51 -15 -11 -13 -4 -15 49 -15 39 0 60 4 56 10 -3 6 -1 10 4 10 16 0 14 137 -1 144 -10 5 -10 7 0 12 18 9 16 131 -3 150 -13 14 -15 -2 -15 -140z"/> <path d="M387 2093 c18 -2 50 -2 70 0 21 2 7 4 -32 4 -38 0 -55 -2 -38 -4z"/> <path d="M2353 1955 c0 -27 2 -38 4 -22 2 15 2 37 0 50 -2 12 -4 0 -4 -28z"/> <path d="M27 1953 c18 -2 50 -2 70 0 21 2 7 4 -32 4 -38 0 -55 -2 -38 -4z"/> <path d="M438 1943 c12 -2 30 -2 40 0 9 3 -1 5 -23 4 -22 0 -30 -2 -17 -4z"/> <path d="M2848 1943 c12 -2 30 -2 40 0 9 3 -1 5 -23 4 -22 0 -30 -2 -17 -4z"/> <path d="M58 1803 c29 -2 74 -2 100 0 26 2 2 3 -53 3 -55 0 -76 -1 -47 -3z"/> <path d="M455 1801 c11 -4 23 -21 26 -37 6 -27 7 -27 8 9 1 34 -1 37 -26 36 -24 0 -25 -1 -8 -8z"/> <path d="M2878 1793 c12 -2 30 -2 40 0 9 3 -1 5 -23 4 -22 0 -30 -2 -17 -4z"/> <path d="M92 1653 c54 -2 142 -2 195 0 54 1 10 3 -97 3 -107 0 -151 -2 -98 -3z"/> <path d="M403 1653 c9 -2 25 -2 35 0 9 3 1 5 -18 5 -19 0 -27 -2 -17 -5z"/> <path d="M460 1650 c0 -5 4 -10 9 -10 6 0 12 -21 14 -47 3 -47 3 -47 5 10 2 45 -1 57 -13 57 -8 0 -15 -4 -15 -10z"/> <path d="M740 1555 c0 -69 3 -85 15 -85 8 0 15 -7 15 -16 0 -10 -6 -14 -15 -10 -13 5 -15 -17 -15 -159 l0 -165 123 1 c67 1 115 3 105 6 -9 2 -19 11 -22 20 -5 13 -4 14 9 3 8 -7 15 -11 16 -9 0 2 1 34 2 72 2 48 -2 67 -10 67 -7 0 -13 7 -13 15 0 8 6 15 13 15 8 0 12 20 12 65 0 45 -4 65 -12 65 -7 0 -13 9 -13 20 0 11 6 20 13 20 8 0 12 20 12 65 1 47 -3 65 -12 65 -19 0 -16 18 5 23 9 3 -19 5 -63 5 -44 0 -74 -2 -67 -5 6 -2 12 -11 12 -19 0 -12 8 -13 34 -9 46 9 76 -2 76 -27 0 -16 -5 -19 -24 -14 -15 4 -28 0 -36 -9 -7 -8 -16 -12 -21 -9 -5 3 -9 0 -9 -5 0 -6 -7 -11 -15 -11 -8 0 -16 -6 -16 -12 -2 -23 -17 46 -18 85 -1 36 -2 37 -41 37 l-40 0 0 -85z m60 28 c0 -10 8 -40 19 -67 15 -39 19 -45 24 -27 3 13 13 21 25 21 12 0 24 5 27 10 3 6 13 10 21 10 10 0 14 -12 14 -39 0 -22 5 -52 10 -67 8 -21 8 -29 -2 -36 -10 -6 -10 -8 0 -8 6 0 12 -7 12 -16 0 -9 -5 -12 -12 -8 -9 5 -9 2 1 -9 8 -10 9 -17 3 -17 -19 0 -25 -58 -8 -76 19 -19 20 -26 4 -42 -9 -9 -9 -12 0 -12 7 0 12 -4 12 -10 0 -5 -14 -10 -31 -10 -17 0 -39 -5 -50 -10 -10 -6 -19 -7 -19 -2 0 5 -17 7 -38 5 l-39 -4 5 58 c3 32 9 61 14 64 5 3 3 9 -6 12 -22 9 -22 297 0 297 8 0 14 -8 14 -17z m-30 -288 c0 -8 -4 -15 -10 -15 -5 0 -10 7 -10 15 0 8 5 15 10 15 6 0 10 -7 10 -15z"/> <path d="M829 1414 c0 -21 -2 -57 -4 -79 -3 -21 -1 -42 3 -45 4 -3 12 -23 17 -45 7 -27 16 -41 30 -44 17 -3 18 -1 6 13 -8 9 -11 26 -7 40 5 19 1 28 -14 36 -17 9 -20 20 -19 81 1 39 -2 73 -5 76 -3 4 -6 -11 -7 -33z"/> <path d="M2048 1633 c6 -2 12 -9 12 -14 0 -5 -6 -9 -12 -9 -9 0 -14 -21 -15 -65 -1 -50 2 -65 13 -65 8 0 14 -9 14 -20 0 -11 -5 -19 -11 -17 -7 1 -12 -22 -13 -66 -1 -48 3 -67 12 -67 6 0 12 -7 12 -15 0 -8 -6 -15 -12 -15 -9 0 -13 -19 -12 -67 2 -55 5 -68 20 -74 17 -6 16 -7 -6 -11 -14 -3 30 -6 98 -7 l122 -1 0 80 c0 64 -3 80 -15 80 -8 0 -15 7 -15 15 0 8 7 15 15 15 12 0 15 15 15 75 0 62 -2 73 -15 69 -10 -4 -15 0 -15 11 0 11 5 15 15 11 13 -4 15 8 15 79 l0 85 -117 -1 c-65 0 -112 -3 -105 -6z m132 -32 c0 -4 12 -7 28 -6 25 0 27 -3 30 -48 2 -27 -2 -55 -8 -62 -8 -10 -8 -19 -1 -34 6 -11 11 -44 11 -75 0 -45 -4 -58 -22 -70 -19 -14 -20 -16 -4 -16 15 0 17 -7 14 -57 l-4 -57 -65 0 c-35 0 -67 -4 -70 -8 -3 -5 -13 -6 -23 -2 -30 11 2 36 43 32 32 -2 36 0 34 20 -2 12 2 22 8 22 7 0 9 11 7 25 -3 15 -1 25 6 25 9 0 12 38 12 134 -1 102 -4 132 -13 129 -13 -5 -18 -24 -14 -53 7 -69 3 -163 -9 -170 -7 -4 -10 -15 -7 -25 4 -10 3 -14 -4 -9 -6 3 -10 -1 -9 -12 4 -35 0 -46 -14 -41 -8 3 -13 -1 -12 -10 0 -9 -4 -18 -11 -20 -15 -6 -10 61 7 82 9 11 10 18 1 28 -12 15 -11 99 1 108 4 3 4 19 -1 37 -7 23 -6 32 2 32 7 1 6 6 -4 13 -9 7 -14 18 -12 25 3 6 0 12 -6 12 -6 0 -11 6 -11 13 0 19 30 17 31 -2 0 -11 2 -12 6 -3 2 6 9 10 14 6 5 -3 9 2 9 10 0 9 -4 16 -10 16 -5 0 -10 3 -10 8 0 4 18 8 40 9 22 0 40 -2 40 -6z m-113 -248 c-2 -16 -4 -5 -4 22 0 28 2 40 4 28 2 -13 2 -35 0 -50z"/> <path d="M2143 1583 c-7 -3 -13 -11 -13 -20 0 -12 2 -12 16 2 18 17 16 25 -3 18z"/> <path d="M654 1365 c0 -132 2 -185 3 -117 2 68 2 176 0 240 -1 64 -3 9 -3 -123z"/> <path d="M2353 1540 c0 -36 2 -50 4 -32 2 17 2 47 0 65 -2 17 -4 3 -4 -33z"/> <path d="M325 1503 c104 -3 152 -7 157 -16 5 -8 8 -7 8 6 0 16 -13 17 -157 15 l-158 -2 150 -3z"/> <path d="M2938 1493 c12 -2 30 -2 40 0 9 3 -1 5 -23 4 -22 0 -30 -2 -17 -4z"/> <path d="M2353 1390 c0 -47 2 -66 4 -42 2 23 2 61 0 85 -2 23 -4 4 -4 -43z"/> <path d="M483 1420 c0 -25 2 -35 4 -22 2 12 2 32 0 45 -2 12 -4 2 -4 -23z"/> <path d="M337 1353 l142 -4 4 -57 3 -57 2 63 2 62 -147 -2 -148 -2 142 -3z"/> <path d="M322 1203 l157 -4 4 -62 3 -62 2 68 2 67 -162 -2 -163 -2 157 -3z"/> <path d="M2522 1140 l2 -65 3 58 4 57 157 2 c169 2 151 6 -46 10 l-122 3 2 -65z"/> <path d="M355 1060 l-130 -6 128 -2 127 -2 0 -70 0 -69 -102 -4 -103 -3 102 -2 102 -2 4 -62 c2 -35 4 3 5 85 1 81 1 146 0 145 -2 -1 -61 -5 -133 -8z"/> <path d="M2521 1028 c1 -30 2 -31 8 -8 l7 25 164 5 165 6 -172 2 -173 2 1 -32z"/> <path d="M740 860 c0 -63 3 -80 15 -80 15 0 31 -59 22 -82 -3 -7 -6 2 -6 20 -1 21 -6 32 -16 32 -12 0 -15 -14 -15 -70 0 -58 3 -68 15 -64 11 4 15 0 15 -16 0 -16 -4 -20 -15 -16 -13 4 -15 -8 -15 -77 l0 -82 122 0 c67 0 114 1 105 3 -9 2 -17 8 -17 13 0 5 -36 9 -80 9 l-81 0 2 140 1 140 24 0 c19 0 24 5 24 26 0 20 -4 24 -19 19 -38 -12 -51 4 -51 60 0 39 4 54 16 59 25 10 32 7 37 -11 4 -14 5 -12 6 5 1 18 7 22 34 22 18 0 38 -5 45 -12 9 -9 12 -9 12 1 0 7 4 10 10 6 5 -3 7 -12 4 -20 -3 -8 -2 -20 2 -27 13 -21 12 -51 -2 -78 -11 -21 -13 -22 -14 -6 0 18 -1 18 -20 1 -11 -10 -19 -25 -19 -34 1 -13 2 -13 6 2 6 23 20 22 34 -4 9 -17 8 -23 -2 -30 -12 -8 -12 -10 0 -18 9 -6 10 -11 2 -15 -6 -4 -11 -12 -11 -18 0 -6 9 -3 20 7 15 13 20 31 20 67 0 26 5 48 10 48 6 0 10 28 10 65 0 41 -4 65 -11 65 -8 0 -8 5 1 15 11 13 -2 15 -104 15 l-116 0 0 -80z"/> <path d="M2040 860 c0 -47 4 -80 10 -80 6 0 10 -7 10 -15 0 -8 -4 -15 -10 -15 -6 0 -10 -28 -10 -65 0 -54 3 -65 17 -65 9 0 24 -6 32 -14 21 -18 61 -30 61 -18 0 5 -9 17 -20 27 -12 11 -19 29 -18 44 1 14 -2 36 -6 49 -5 13 -3 22 3 22 6 0 11 -9 11 -19 0 -11 5 -23 10 -26 7 -4 9 2 6 17 -12 56 -17 228 -6 228 5 0 10 -19 10 -42 0 -54 16 -38 19 20 1 6 5 12 10 12 5 0 8 -24 6 -52 l-4 -53 20 25 c13 14 16 26 10 28 -21 7 -11 27 14 27 23 0 25 -3 24 -50 -1 -35 -3 -43 -8 -26 l-6 24 -12 -27 c-7 -14 -17 -26 -23 -26 -19 0 -10 -18 11 -23 12 -3 18 -10 14 -17 -5 -8 -11 -8 -21 1 -11 9 -14 7 -15 -12 -1 -13 -3 -31 -4 -39 -1 -8 -3 -43 -4 -77 l-1 -63 -34 0 c-19 0 -38 5 -41 10 -3 6 -17 10 -31 10 -23 0 -24 -3 -24 -65 0 -37 4 -65 10 -65 6 0 10 -5 10 -11 0 -5 -4 -7 -10 -4 -5 3 -10 3 -10 -2 0 -4 52 -8 115 -8 l115 0 0 82 c0 69 -2 81 -15 77 -11 -4 -15 -22 -16 -63 -1 -31 -3 -48 -6 -39 -4 16 -6 16 -20 3 -11 -12 -29 -15 -72 -11 -31 3 -57 5 -59 5 -2 1 -2 13 0 29 3 25 7 28 62 34 36 5 64 4 71 -2 17 -14 26 51 15 110 -7 43 -8 43 -9 10 -2 -49 -16 -69 -30 -43 -5 11 -7 23 -4 27 3 3 6 24 5 46 -2 34 1 40 18 40 15 0 22 9 26 29 4 19 11 28 19 24 10 -3 14 15 17 76 l3 81 -87 0 -88 0 0 -84 c0 -86 -11 -136 -30 -136 -6 0 -8 10 -4 26 4 14 7 63 8 110 1 74 -1 84 -16 84 -16 0 -18 -10 -18 -80z m50 -169 c0 -5 3 -16 6 -24 4 -12 0 -14 -15 -10 -24 6 -29 43 -6 43 8 0 15 -4 15 -9z m-23 -203 c-2 -13 -4 -5 -4 17 -1 22 1 32 4 23 2 -10 2 -28 0 -40z m177 -34 c9 -3 16 -11 16 -16 0 -7 -5 -7 -13 0 -7 6 -51 13 -97 15 l-85 3 82 2 c45 1 88 -1 97 -4z"/> <path d="M654 690 c0 -135 2 -190 3 -122 2 67 2 177 0 245 -1 67 -3 12 -3 -123z"/> <path d="M188 903 c18 -2 45 -2 60 0 15 2 0 4 -33 4 -33 0 -45 -2 -27 -4z"/> <path d="M2522 868 l1 -43 4 37 4 37 97 4 97 3 -102 2 -103 2 2 -42z"/> <path d="M2757 903 c18 -2 50 -2 70 0 21 2 7 4 -32 4 -38 0 -55 -2 -38 -4z"/> <path d="M2353 840 c0 -30 2 -43 4 -27 2 15 2 39 0 55 -2 15 -4 2 -4 -28z"/> <path d="M70 758 c0 -5 92 -8 205 -8 l204 0 4 -57 3 -58 2 65 2 65 -210 0 c-116 0 -210 -3 -210 -7z"/> <path d="M2253 753 c-20 -7 -17 -129 2 -137 13 -4 15 7 15 69 0 41 -1 75 -2 74 -2 0 -9 -3 -15 -6z"/> <path d="M2520 753 c0 -5 71 -7 157 -5 254 4 274 8 51 10 -115 1 -208 -1 -208 -5z"/> <path d="M2353 700 c0 -30 2 -43 4 -27 2 15 2 39 0 55 -2 15 -4 2 -4 -28z"/> <path d="M956 665 c-4 -14 -11 -23 -16 -20 -5 3 -12 0 -16 -6 -11 -18 -13 -68 -3 -75 14 -8 11 -70 -4 -82 -7 -6 -35 -12 -62 -15 -45 -3 -43 -4 17 -5 36 -1 73 -5 82 -8 14 -5 16 4 16 60 0 81 -19 89 -22 9 -1 -54 -2 -55 -5 -13 -5 57 4 110 20 107 7 -1 10 10 8 33 -4 44 -7 47 -15 15z"/> <path d="M817 653 c-12 -11 -7 -33 7 -33 7 0 16 9 19 20 5 19 -12 28 -26 13z"/> <path d="M460 610 c0 -5 4 -10 9 -10 6 0 12 -21 14 -47 3 -47 3 -47 5 10 2 45 -1 57 -13 57 -8 0 -15 -4 -15 -10z"/> <path d="M133 603 c15 -2 37 -2 50 0 12 2 0 4 -28 4 -27 0 -38 -2 -22 -4z"/> <path d="M2523 604 c6 -7 379 -5 386 1 2 3 -85 5 -194 5 -109 0 -196 -3 -192 -6z"/> <path d="M814 565 c0 -20 4 -34 10 -32 13 4 14 67 1 67 -6 0 -11 -16 -11 -35z"/> <path d="M385 460 l-80 -6 87 -2 87 -2 4 -42 c3 -41 4 -41 5 10 1 37 -2 51 -10 50 -7 -1 -49 -5 -93 -8z"/> <path d="M2522 454 c7 -7 400 -5 407 1 2 3 -89 5 -204 5 -115 0 -206 -3 -203 -6z"/> <path d="M365 310 l-110 -6 112 -2 112 -2 4 -57 3 -58 2 68 c1 37 -1 66 -5 65 -5 -1 -57 -5 -118 -8z"/> <path d="M2526 310 c-1 -3 1 -32 5 -65 l6 -60 1 57 2 58 198 2 197 3 -203 5 c-112 3 -205 3 -206 0z"/> <path d="M143 303 c20 -2 54 -2 75 0 20 2 3 4 -38 4 -41 0 -58 -2 -37 -4z"/> <path d="M70 158 c0 -4 95 -9 210 -10 135 -2 210 1 210 7 0 6 -77 10 -210 10 -115 0 -210 -3 -210 -7z"/> <path d="M2530 155 c0 -6 71 -9 200 -7 110 1 200 6 200 10 0 4 -90 7 -200 7 -127 0 -200 -4 -200 -10z"/> <path d="M2920 41 c0 -6 5 -13 10 -16 6 -4 8 -11 5 -16 -4 -5 11 -9 32 -8 30 0 34 2 18 9 -12 4 -27 15 -34 24 -15 18 -31 21 -31 7z"/> <path d="M578 23 c12 -2 32 -2 45 0 12 2 2 4 -23 4 -25 0 -35 -2 -22 -4z"/> <path d="M848 23 c12 -2 32 -2 45 0 12 2 2 4 -23 4 -25 0 -35 -2 -22 -4z"/> </g> </svg> 